<?xml version="1.0" encoding="UTF-8" standalone="no"?>
<!DOCTYPE svg PUBLIC "-//W3C//DTD SVG 1.1//EN" "http://www.w3.org/Graphics/SVG/1.1/DTD/svg11.dtd">
<svg width="100%" height="100%" viewBox="0 0 438 418" version="1.1" xmlns="http://www.w3.org/2000/svg" xmlns:xlink="http://www.w3.org/1999/xlink" xml:space="preserve" xmlns:serif="http://www.serif.com/" style="fill-rule:evenodd;clip-rule:evenodd;stroke-linejoin:round;stroke-miterlimit:2;">
    <g transform="matrix(1,0,0,1,-458,0)">
        <g transform="matrix(1,0,0,1,5.39753,0)">
            <g id="Full-Logo" serif:id="Full Logo" transform="matrix(0.226988,0,0,0.226988,452.457,-0.200294)">
                <rect x="0.92" y="0.882" width="1926.16" height="1838.23" style="fill:none;"/>
                <clipPath id="_clip1">
                    <rect x="0.92" y="0.882" width="1926.16" height="1838.23"/>
                </clipPath>
                <g clip-path="url(#_clip1)">
                    <g>
                        <g id="Text">
                            <g transform="matrix(1.3641,0,0,1.3641,-2837.65,-527.833)">
                                <g transform="matrix(154.111,0,0,154.111,2109.38,1521.36)">
                                    <path d="M0.972,-0.72C0.929,-0.603 0.883,-0.474 0.84,-0.358L0.815,-0.291L0.657,-0.72L0.514,-0.72C0.471,-0.603 0.425,-0.474 0.382,-0.358L0.357,-0.291L0.2,-0.72L0.035,-0.72L0.297,-0L0.416,-0C0.448,-0.091 0.487,-0.194 0.521,-0.287L0.585,-0.463L0.755,-0L0.874,-0L1.136,-0.72L0.972,-0.72Z" style="fill:rgb(73,75,92);fill-rule:nonzero;"/>
                                </g>
                                <g transform="matrix(154.111,0,0,154.111,2291.07,1521.36)">
                                    <path d="M0.723,-0.72L0.058,-0.72L0.058,-0L0.723,-0L0.723,-0.156L0.215,-0.156L0.215,-0.282L0.624,-0.282L0.624,-0.438L0.215,-0.438L0.215,-0.564L0.723,-0.564L0.723,-0.72Z" style="fill:rgb(73,75,92);fill-rule:nonzero;"/>
                                </g>
                                <g transform="matrix(154.111,0,0,154.111,2409.12,1521.36)">
                                    <path d="M0.771,-0.572C0.771,-0.654 0.704,-0.72 0.623,-0.72L0.199,-0.72C0.117,-0.72 0.051,-0.654 0.051,-0.572L0.051,-0.43C0.051,-0.348 0.117,-0.282 0.199,-0.282L0.614,-0.282L0.614,-0.156L0.206,-0.156L0.206,-0.215L0.051,-0.215L0.051,-0.148C0.051,-0.066 0.117,-0 0.199,-0L0.623,-0C0.704,-0 0.771,-0.066 0.771,-0.148L0.771,-0.29C0.771,-0.372 0.704,-0.438 0.623,-0.438L0.206,-0.438L0.206,-0.564L0.614,-0.564L0.614,-0.505L0.771,-0.505L0.771,-0.572Z" style="fill:rgb(73,75,92);fill-rule:nonzero;"/>
                                </g>
                                <g transform="matrix(154.111,0,0,154.111,2535.8,1521.36)">
                                    <path d="M0.02,-0.72L0.02,-0.564L0.302,-0.564L0.302,-0L0.458,-0L0.458,-0.564L0.74,-0.564L0.74,-0.72L0.02,-0.72Z" style="fill:rgb(73,75,92);fill-rule:nonzero;"/>
                                </g>
                            </g>
                            <g transform="matrix(1.3641,0,0,1.3641,-2837.65,-527.833)">
                                <g transform="matrix(154.111,0,0,154.111,2704.86,1521.36)">
                                    <path d="M0.206,-0.72C0.124,-0.72 0.058,-0.654 0.058,-0.572L0.058,-0L0.213,-0L0.213,-0.232L0.621,-0.232L0.621,-0L0.778,-0L0.778,-0.572C0.778,-0.654 0.711,-0.72 0.629,-0.72L0.206,-0.72ZM0.213,-0.388L0.213,-0.564L0.621,-0.564L0.621,-0.388L0.213,-0.388Z" style="fill:rgb(73,75,92);fill-rule:nonzero;"/>
                                </g>
                                <g transform="matrix(154.111,0,0,154.111,2833.7,1521.36)">
                                    <path d="M0.771,-0.572C0.771,-0.654 0.704,-0.72 0.623,-0.72L0.199,-0.72C0.117,-0.72 0.051,-0.654 0.051,-0.572L0.051,-0.43C0.051,-0.348 0.117,-0.282 0.199,-0.282L0.614,-0.282L0.614,-0.156L0.206,-0.156L0.206,-0.215L0.051,-0.215L0.051,-0.148C0.051,-0.066 0.117,-0 0.199,-0L0.623,-0C0.704,-0 0.771,-0.066 0.771,-0.148L0.771,-0.29C0.771,-0.372 0.704,-0.438 0.623,-0.438L0.206,-0.438L0.206,-0.564L0.614,-0.564L0.614,-0.505L0.771,-0.505L0.771,-0.572Z" style="fill:rgb(73,75,92);fill-rule:nonzero;"/>
                                </g>
                                <g transform="matrix(154.111,0,0,154.111,2960.38,1521.36)">
                                    <path d="M0.637,-0.72L0.637,-0.438L0.212,-0.438L0.212,-0.72L0.057,-0.72L0.057,-0L0.212,-0L0.212,-0.282L0.637,-0.282L0.637,-0L0.792,-0L0.792,-0.72L0.637,-0.72Z" style="fill:rgb(73,75,92);fill-rule:nonzero;"/>
                                </g>
                                <g transform="matrix(154.111,0,0,154.111,3091.53,1521.36)">
                                    <path d="M0.057,-0L0.777,-0L0.777,-0.156L0.212,-0.156L0.212,-0.721L0.057,-0.721L0.057,-0Z" style="fill:rgb(73,75,92);fill-rule:nonzero;"/>
                                </g>
                                <g transform="matrix(154.111,0,0,154.111,3211.58,1521.36)">
                                    <path d="M0.723,-0.72L0.058,-0.72L0.058,-0L0.723,-0L0.723,-0.156L0.215,-0.156L0.215,-0.282L0.624,-0.282L0.624,-0.438L0.215,-0.438L0.215,-0.564L0.723,-0.564L0.723,-0.72Z" style="fill:rgb(73,75,92);fill-rule:nonzero;"/>
                                </g>
                                <g transform="matrix(154.111,0,0,154.111,3329.63,1521.36)">
                                    <path d="M0.653,-0.72C0.581,-0.628 0.501,-0.528 0.428,-0.436L0.202,-0.72L0.017,-0.72C0.073,-0.643 0.156,-0.529 0.219,-0.445L0.35,-0.269L0.35,-0L0.506,-0L0.506,-0.268L0.84,-0.72L0.653,-0.72Z" style="fill:rgb(73,75,92);fill-rule:nonzero;"/>
                                </g>
                            </g>
                            <g transform="matrix(1.14718,0,0,1.14718,-2676.53,-38.3752)">
                                <g transform="matrix(288,0,0,288,2318.97,1636.62)">
                                    <path d="M0.775,-0.571C0.775,-0.652 0.708,-0.719 0.626,-0.719L0.055,-0.719L0.055,-0L0.21,-0L0.21,-0.231C0.211,-0.23 0.213,-0.23 0.213,-0.23C0.213,-0.234 0.212,-0.236 0.21,-0.236L0.416,-0.237L0.615,-0L0.775,-0L0.775,-0.053C0.725,-0.113 0.67,-0.177 0.619,-0.237L0.626,-0.237C0.708,-0.237 0.775,-0.304 0.775,-0.385L0.775,-0.571ZM0.21,-0.564L0.618,-0.564L0.618,-0.393L0.21,-0.393L0.21,-0.564Z" style="fill:rgb(115,27,197);fill-rule:nonzero;"/>
                                </g>
                                <g transform="matrix(288,0,0,288,2556.57,1636.62)">
                                    <path d="M0.202,-0.72C0.12,-0.72 0.054,-0.654 0.054,-0.572L0.054,-0.148C0.054,-0.066 0.12,-0 0.202,-0L0.626,-0C0.707,-0 0.774,-0.066 0.774,-0.148L0.774,-0.572C0.774,-0.654 0.707,-0.72 0.626,-0.72L0.202,-0.72ZM0.209,-0.564L0.617,-0.564L0.617,-0.156L0.209,-0.156L0.209,-0.564Z" style="fill:rgb(115,27,197);fill-rule:nonzero;"/>
                                </g>
                                <g transform="matrix(288,0,0,288,2795.03,1636.62)">
                                    <path d="M0.751,-0.572C0.751,-0.654 0.684,-0.72 0.603,-0.72L0.059,-0.72L0.059,-0L0.63,-0C0.712,-0 0.779,-0.066 0.779,-0.148L0.779,-0.297C0.779,-0.331 0.764,-0.366 0.744,-0.391C0.749,-0.404 0.751,-0.42 0.751,-0.437L0.751,-0.572ZM0.214,-0.288L0.622,-0.288L0.622,-0.156L0.214,-0.156L0.214,-0.288ZM0.214,-0.564L0.594,-0.564L0.594,-0.444L0.214,-0.444L0.214,-0.564Z" style="fill:rgb(115,27,197);fill-rule:nonzero;"/>
                                </g>
                                <g transform="matrix(288,0,0,288,3034.65,1636.62)">
                                    <path d="M0.202,-0.72C0.12,-0.72 0.054,-0.654 0.054,-0.572L0.054,-0.148C0.054,-0.066 0.12,-0 0.202,-0L0.626,-0C0.707,-0 0.774,-0.066 0.774,-0.148L0.774,-0.572C0.774,-0.654 0.707,-0.72 0.626,-0.72L0.202,-0.72ZM0.209,-0.564L0.617,-0.564L0.617,-0.156L0.209,-0.156L0.209,-0.564Z" style="fill:rgb(115,27,197);fill-rule:nonzero;"/>
                                </g>
                                <g transform="matrix(288,0,0,288,3273.11,1636.62)">
                                    <path d="M0.02,-0.72L0.02,-0.564L0.302,-0.564L0.302,-0L0.458,-0L0.458,-0.564L0.74,-0.564L0.74,-0.72L0.02,-0.72Z" style="fill:rgb(115,27,197);fill-rule:nonzero;"/>
                                </g>
                                <g transform="matrix(288,0,0,288,3491.7,1636.62)">
                                    <rect x="0.057" y="-0.72" width="0.156" height="0.72" style="fill:rgb(115,27,197);fill-rule:nonzero;"/>
                                </g>
                                <g transform="matrix(288,0,0,288,3555.06,1636.62)">
                                    <path d="M0.774,-0.564L0.774,-0.72L0.204,-0.72C0.122,-0.72 0.056,-0.654 0.056,-0.572L0.056,-0.148C0.056,-0.066 0.122,-0 0.204,-0L0.774,-0L0.774,-0.156L0.211,-0.156L0.211,-0.564L0.774,-0.564Z" style="fill:rgb(115,27,197);fill-rule:nonzero;"/>
                                </g>
                                <g transform="matrix(288,0,0,288,3791.8,1636.62)">
                                    <path d="M0.771,-0.572C0.771,-0.654 0.704,-0.72 0.623,-0.72L0.199,-0.72C0.117,-0.72 0.051,-0.654 0.051,-0.572L0.051,-0.43C0.051,-0.348 0.117,-0.282 0.199,-0.282L0.614,-0.282L0.614,-0.156L0.206,-0.156L0.206,-0.215L0.051,-0.215L0.051,-0.148C0.051,-0.066 0.117,-0 0.199,-0L0.623,-0C0.704,-0 0.771,-0.066 0.771,-0.148L0.771,-0.29C0.771,-0.372 0.704,-0.438 0.623,-0.438L0.206,-0.438L0.206,-0.564L0.614,-0.564L0.614,-0.505L0.771,-0.505L0.771,-0.572Z" style="fill:rgb(115,27,197);fill-rule:nonzero;"/>
                                </g>
                            </g>
                        </g>
                        <g id="Symbol" transform="matrix(1,0,0,1,-25.0215,-79.1176)">
                            <g transform="matrix(1,0,0,1,617.843,1055.54)">
                                <path d="M0,-356.219L-91.979,-328.585L-249.312,-435.894L-426.414,-368.12L-297.723,-241.447L-429.237,-40.14L-226.318,79.675L-226.318,-235.395L0,-305.993L0,-356.219Z" style="fill:rgb(73,75,92);fill-rule:nonzero;"/>
                            </g>
                            <g transform="matrix(0.955598,-0.294675,-0.294675,-0.955598,463.63,824.827)">
                                <path d="M66.702,3.748L162.534,3.748L28.054,-432.355L-70.958,-442.668L66.702,3.748Z" style="fill:rgb(64,66,80);fill-rule:nonzero;"/>
                            </g>
                            <g transform="matrix(1,0,0,1,833.873,772.695)">
                                <path d="M0,565.644L-184.11,476.69L-184.11,50.68L28.592,0L73.674,38.123L-89.357,84.365L-89.357,482.742L0,565.644Z" style="fill:rgb(73,75,92);fill-rule:nonzero;"/>
                            </g>
                            <g transform="matrix(1,0,0,1,649.763,759.03)">
                                <path d="M0,-51.436L0,42.157L196.616,-2.824L276.09,-2.824L276.09,-38.728L233.933,-93.593L119.563,-93.593L0,-51.436Z" style="fill:rgb(73,75,92);fill-rule:nonzero;"/>
                            </g>
                            <g transform="matrix(1,0,0,1,455.063,361.661)">
                                <path d="M0,56.883L-78.062,-280.779L268.677,9.683L381.23,9.683L381.23,101.662L304.379,156.729L57.487,156.729L162.174,255.97L162.174,307.406L71.405,337.662L-85.323,231.765L-177.908,138.575L-45.99,138.575L0,56.883Z" style="fill:rgb(115,27,197);fill-rule:nonzero;"/>
                            </g>
                            <g transform="matrix(0.956093,-0.293064,-0.293064,-0.956093,359.283,858.158)">
                                <path d="M61.328,4.713L158.375,4.713L23.123,-436.534L-47.618,-350.714L61.328,4.713Z" style="fill:rgb(115,27,197);fill-rule:nonzero;"/>
                            </g>
                            <g transform="matrix(1,0,0,1,1360.2,1055.54)">
                                <path d="M0,-356.219L91.979,-328.585L249.312,-435.894L426.414,-368.12L297.723,-241.447L429.237,-40.14L226.318,79.675L226.318,-235.395L0,-305.993L0,-356.219Z" style="fill:rgb(73,75,92);fill-rule:nonzero;"/>
                            </g>
                            <g transform="matrix(-0.955598,-0.294675,-0.294675,0.955598,1297.56,1217.27)">
                                <path d="M-24.874,-442.668L70.958,-442.668L-63.522,-6.565L-162.534,3.748L-24.874,-442.668Z" style="fill:rgb(64,66,80);fill-rule:nonzero;"/>
                            </g>
                            <g transform="matrix(1,0,0,1,1144.17,772.695)">
                                <path d="M0,565.644L184.11,476.69L184.11,50.68L-28.593,0L-73.675,38.123L89.357,84.365L89.357,482.742L0,565.644Z" style="fill:rgb(73,75,92);fill-rule:nonzero;"/>
                            </g>
                            <g transform="matrix(1,0,0,1,1328.28,759.03)">
                                <path d="M0,-51.436L0,42.157L-196.616,-2.824L-276.09,-2.824L-276.09,-38.728L-233.933,-93.593L-119.563,-93.593L0,-51.436Z" style="fill:rgb(73,75,92);fill-rule:nonzero;"/>
                            </g>
                            <g transform="matrix(1,0,0,1,989.055,778.654)">
                                <path d="M0,74.012L85.828,-0.058L-85.895,-0.058L-0.067,74.012L-0.067,74.07L-0.034,74.041L0,74.07L0,74.012Z" style="fill:rgb(73,75,92);fill-rule:nonzero;"/>
                            </g>
                            <g transform="matrix(1,0,0,1,989.055,778.653)">
                                <path d="M0,74.012L85.828,-0.058L-85.895,-0.058L-0.067,74.012L-0.067,74.07L-0.034,74.041L0,74.07L0,74.012Z" style="fill:rgb(73,75,92);fill-rule:nonzero;"/>
                            </g>
                            <g transform="matrix(1,0,0,1,989.055,502.959)">
                                <path d="M130.001,-131.615L-130.069,-131.615L-130.069,-28.871L-78.514,-3L78.486,-3L130.001,-28.871L130.001,-131.615Z" style="fill:rgb(64,66,80);fill-rule:nonzero;"/>
                            </g>
                            <g transform="matrix(1,0,0,1,1522.98,361.661)">
                                <path d="M0,56.883L78.062,-280.779L-268.677,9.683L-381.23,9.683L-381.23,101.662L-304.379,156.729L-57.487,156.729L-162.174,255.97L-162.174,307.406L-71.405,337.662L85.323,231.765L177.908,138.575L45.99,138.575L0,56.883Z" style="fill:rgb(115,27,197);fill-rule:nonzero;"/>
                            </g>
                            <g transform="matrix(-0.956093,-0.293064,-0.293064,0.956093,1411.47,1217.83)">
                                <path d="M-31.458,-409.342L65.589,-409.342L-69.663,31.905L-140.404,-53.915L-31.458,-409.342Z" style="fill:rgb(115,27,197);fill-rule:nonzero;"/>
                            </g>
                            <g transform="matrix(1,0,0,1,1056.63,1360.73)">
                                <path d="M0,-530.697L-67.606,-473.843L-135.213,-530.697L-285.284,-485.312L-285.284,-115.579L-154.072,0L18.859,0L150.071,-115.579L150.071,-485.312L0,-530.697Z" style="fill:rgb(115,27,197);fill-rule:nonzero;"/>
                            </g>
                            <g transform="matrix(1,0,0,1,1141.75,760.744)">
                                <path d="M0,-272.005L-69.287,-236.631L-236.168,-236.631L-305.455,-272.005L-491.986,-139.785L-491.986,-74.129L-372.019,-116.185L-243.127,-116.185L-195.322,-52.646L-195.322,0L-110.133,0L-110.133,-52.646L-62.328,-116.185L66.564,-116.185L186.531,-74.129L186.531,-139.785L0,-272.005Z" style="fill:rgb(115,27,197);fill-rule:nonzero;"/>
                            </g>
                        </g>
                    </g>
                </g>
            </g>
        </g>
    </g>
</svg>
