<?xml version="1.0" encoding="UTF-8" standalone="no"?>
<!DOCTYPE svg PUBLIC "-//W3C//DTD SVG 1.1//EN" "http://www.w3.org/Graphics/SVG/1.1/DTD/svg11.dtd">
<svg width="100%" height="100%" viewBox="0 0 365 291" version="1.1" xmlns="http://www.w3.org/2000/svg" xmlns:xlink="http://www.w3.org/1999/xlink" xml:space="preserve" xmlns:serif="http://www.serif.com/" style="fill-rule:evenodd;clip-rule:evenodd;stroke-linejoin:round;stroke-miterlimit:2;">
    <g transform="matrix(1,0,0,1,-39,0)">
        <g transform="matrix(1,0,0,1,5.39753,0)">
            <g id="Symbol-Only" serif:id="Symbol Only" transform="matrix(0.226988,0,0,0.226988,-8.30908,-18.3593)">
                <rect x="188.606" y="80.882" width="1600.83" height="1279.85" style="fill:none;"/>
                <clipPath id="_clip1">
                    <rect x="188.606" y="80.882" width="1600.83" height="1279.85"/>
                </clipPath>
                <g clip-path="url(#_clip1)">
                    <g transform="matrix(1,0,0,1,0.6058,0.8824)">
                        <g transform="matrix(1,0,0,1,617.843,1055.54)">
                            <path d="M0,-356.219L-91.979,-328.585L-249.312,-435.894L-426.414,-368.12L-297.723,-241.447L-429.237,-40.14L-226.318,79.675L-226.318,-235.395L0,-305.993L0,-356.219Z" style="fill:rgb(73,75,92);fill-rule:nonzero;"/>
                        </g>
                        <g transform="matrix(0.955598,-0.294675,-0.294675,-0.955598,463.63,824.827)">
                            <path d="M66.702,3.748L162.534,3.748L28.054,-432.355L-70.958,-442.668L66.702,3.748Z" style="fill:rgb(64,66,80);fill-rule:nonzero;"/>
                        </g>
                        <g transform="matrix(1,0,0,1,833.873,772.695)">
                            <path d="M0,565.644L-184.11,476.69L-184.11,50.68L28.592,0L73.674,38.123L-89.357,84.365L-89.357,482.742L0,565.644Z" style="fill:rgb(73,75,92);fill-rule:nonzero;"/>
                        </g>
                        <g transform="matrix(1,0,0,1,649.763,759.03)">
                            <path d="M0,-51.436L0,42.157L196.616,-2.824L276.09,-2.824L276.09,-38.728L233.933,-93.593L119.563,-93.593L0,-51.436Z" style="fill:rgb(73,75,92);fill-rule:nonzero;"/>
                        </g>
                        <g transform="matrix(1,0,0,1,455.063,361.661)">
                            <path d="M0,56.883L-78.062,-280.779L268.677,9.683L381.23,9.683L381.23,101.662L304.379,156.729L57.487,156.729L162.174,255.97L162.174,307.406L71.405,337.662L-85.323,231.765L-177.908,138.575L-45.99,138.575L0,56.883Z" style="fill:rgb(115,27,197);fill-rule:nonzero;"/>
                        </g>
                        <g transform="matrix(0.956093,-0.293064,-0.293064,-0.956093,359.283,858.158)">
                            <path d="M61.328,4.713L158.375,4.713L23.123,-436.534L-47.618,-350.714L61.328,4.713Z" style="fill:rgb(115,27,197);fill-rule:nonzero;"/>
                        </g>
                        <g transform="matrix(1,0,0,1,1360.2,1055.54)">
                            <path d="M0,-356.219L91.979,-328.585L249.312,-435.894L426.414,-368.12L297.723,-241.447L429.237,-40.14L226.318,79.675L226.318,-235.395L0,-305.993L0,-356.219Z" style="fill:rgb(73,75,92);fill-rule:nonzero;"/>
                        </g>
                        <g transform="matrix(-0.955598,-0.294675,-0.294675,0.955598,1297.56,1217.27)">
                            <path d="M-24.874,-442.668L70.958,-442.668L-63.522,-6.565L-162.534,3.748L-24.874,-442.668Z" style="fill:rgb(64,66,80);fill-rule:nonzero;"/>
                        </g>
                        <g transform="matrix(1,0,0,1,1144.17,772.695)">
                            <path d="M0,565.644L184.11,476.69L184.11,50.68L-28.593,0L-73.675,38.123L89.357,84.365L89.357,482.742L0,565.644Z" style="fill:rgb(73,75,92);fill-rule:nonzero;"/>
                        </g>
                        <g transform="matrix(1,0,0,1,1328.28,759.03)">
                            <path d="M0,-51.436L0,42.157L-196.616,-2.824L-276.09,-2.824L-276.09,-38.728L-233.933,-93.593L-119.563,-93.593L0,-51.436Z" style="fill:rgb(73,75,92);fill-rule:nonzero;"/>
                        </g>
                        <g transform="matrix(1,0,0,1,989.055,778.654)">
                            <path d="M0,74.012L85.828,-0.058L-85.895,-0.058L-0.067,74.012L-0.067,74.07L-0.034,74.041L0,74.07L0,74.012Z" style="fill:rgb(73,75,92);fill-rule:nonzero;"/>
                        </g>
                        <g transform="matrix(1,0,0,1,989.055,778.653)">
                            <path d="M0,74.012L85.828,-0.058L-85.895,-0.058L-0.067,74.012L-0.067,74.07L-0.034,74.041L0,74.07L0,74.012Z" style="fill:rgb(73,75,92);fill-rule:nonzero;"/>
                        </g>
                        <g transform="matrix(1,0,0,1,989.055,502.959)">
                            <path d="M130.001,-131.615L-130.069,-131.615L-130.069,-28.871L-78.514,-3L78.486,-3L130.001,-28.871L130.001,-131.615Z" style="fill:rgb(64,66,80);fill-rule:nonzero;"/>
                        </g>
                        <g transform="matrix(1,0,0,1,1522.98,361.661)">
                            <path d="M0,56.883L78.062,-280.779L-268.677,9.683L-381.23,9.683L-381.23,101.662L-304.379,156.729L-57.487,156.729L-162.174,255.97L-162.174,307.406L-71.405,337.662L85.323,231.765L177.908,138.575L45.99,138.575L0,56.883Z" style="fill:rgb(115,27,197);fill-rule:nonzero;"/>
                        </g>
                        <g transform="matrix(-0.956093,-0.293064,-0.293064,0.956093,1411.47,1217.83)">
                            <path d="M-31.458,-409.342L65.589,-409.342L-69.663,31.905L-140.404,-53.915L-31.458,-409.342Z" style="fill:rgb(115,27,197);fill-rule:nonzero;"/>
                        </g>
                        <g transform="matrix(1,0,0,1,1056.63,1360.73)">
                            <path d="M0,-530.697L-67.606,-473.843L-135.213,-530.697L-285.284,-485.312L-285.284,-115.579L-154.072,0L18.859,0L150.071,-115.579L150.071,-485.312L0,-530.697Z" style="fill:rgb(115,27,197);fill-rule:nonzero;"/>
                        </g>
                        <g transform="matrix(1,0,0,1,1141.75,760.744)">
                            <path d="M0,-272.005L-69.287,-236.631L-236.168,-236.631L-305.455,-272.005L-491.986,-139.785L-491.986,-74.129L-372.019,-116.185L-243.127,-116.185L-195.322,-52.646L-195.322,0L-110.133,0L-110.133,-52.646L-62.328,-116.185L66.564,-116.185L186.531,-74.129L186.531,-139.785L0,-272.005Z" style="fill:rgb(115,27,197);fill-rule:nonzero;"/>
                        </g>
                    </g>
                </g>
            </g>
        </g>
    </g>
</svg>
